<svg preserveAspectRatio="none" overflow="visible" style="display: block;" width="23.6137" height="23.6137" viewBox="0 0 23.6137 23.6137" fill="none" xmlns="http://www.w3.org/2000/svg">
<g id="Frame">
<path id="Vector" d="M11.4753 14.9924C11.3687 14.9514 11.2745 14.8899 11.1925 14.8079L6.51892 10.1344C6.33854 9.95398 6.25244 9.7449 6.26064 9.50712C6.26884 9.26934 6.36313 9.06026 6.54352 8.87988C6.7239 8.6995 6.93298 8.60931 7.17076 8.60931C7.40853 8.60931 7.61761 8.6995 7.79799 8.87988L11.8074 12.9139L15.8414 8.87988C16.0218 8.6995 16.2309 8.61341 16.4687 8.62161C16.7064 8.62981 16.9155 8.7241 17.0959 8.90448C17.2763 9.08486 17.3665 9.29394 17.3665 9.53172C17.3665 9.7695 17.2763 9.97858 17.0959 10.159L12.4223 14.8079C12.3404 14.8899 12.2461 14.9514 12.1395 14.9924C12.0329 15.0334 11.9222 15.0539 11.8074 15.0539C11.6926 15.0539 11.5819 15.0334 11.4753 14.9924Z" fill="#555555"/>
</g>
</svg>

